<svg width="1102" height="1024" xmlns="http://www.w3.org/2000/svg" class="icon">
 <defs>
  <style type="text/css"/>
 </defs>
 <g>
  <title>background</title>
  <rect fill="none" id="canvas_background" height="402" width="582" y="-1" x="-1"/>
 </g>
 <g>
  <title>Layer 1</title>
  <path id="svg_1" fill="#FFD6AB" d="m170.65354,413.53846l472.61538,0a39.38461,39.38461 0 0 1 39.38462,39.38462l0,334.76923a39.38461,39.38461 0 0 1 -39.38462,39.38461l-472.61538,0a39.38461,39.38461 0 0 1 -39.38462,-39.38461l0,-334.76923a39.38461,39.38461 0 0 1 39.38462,-39.38462z"/>
  <path id="svg_2" fill="#FF960B" d="m271.08431,695.68985l232.36923,0.19692a29.53846,29.53846 0 0 0 0,-59.07692l-232.36923,-0.19693a29.53846,29.53846 0 1 0 0,59.07693z"/>
  <path id="svg_3" fill="#000000" d="m531.18031,926.32615l-421.41539,0c-23.70954,0 -43.59877,-20.87384 -43.59877,-47.45846l0,-765.24308c0,-26.54523 19.88923,-47.45846 43.63816,-47.45846l728.77292,0c23.74892,0 43.63815,20.87385 43.63815,47.45846l0,433.4277a33.08308,33.08308 0 1 0 66.16616,0l0,-433.42769c0,-62.38524 -48.79754,-113.62462 -109.80431,-113.62462l-728.77292,0c-61.04616,0 -109.80431,51.2 -109.80431,113.62462l0,765.24307c0,62.38523 48.79754,113.62462 109.80431,113.62462l421.41538,0a33.08308,33.08308 0 0 0 0,-66.16616l-0.03938,0z"/>
  <text stroke="null" transform="matrix(20.14985048369931,0,0,15.829880144332492,-14279.440434317485,-10742.491441810442) " font-weight="bold" xml:space="preserve" text-anchor="start" font-family="'League Gothic', sans-serif" font-size="24" id="svg_5" y="736.224553" x="738.069317" fill-opacity="null" stroke-opacity="null" stroke-width="0" fill="#000000">爬</text>
  <path id="svg_7" d="m743.24174,586.224271" opacity="0.5" fill-opacity="null" stroke-opacity="null" stroke-width="null" stroke="null" fill="#333333"/>
 </g>
</svg>